<?xml version="1.0" encoding="utf-8"?>

<!DOCTYPE svg PUBLIC "-//W3C//DTD SVG 1.0//EN" "http://www.w3.org/TR/2001/REC-SVG-20010904/DTD/svg10.dtd">
<!-- Uploaded to: SVG Repo, www.svgrepo.com, Generator: SVG Repo Mixer Tools -->
<svg version="1.0" id="Layer_1" xmlns="http://www.w3.org/2000/svg" xmlns:xlink="http://www.w3.org/1999/xlink" 
	 width="800px" height="800px" viewBox="0 0 64 64" enable-background="new 0 0 64 64" xml:space="preserve">
<g>
	<path fill="#231F20" d="M32,6c-8.822,0-16,7.178-16,16s7.178,16,16,16s16-7.178,16-16S40.822,6,32,6z M39.712,21.048l-3.146,3.227
		l0.745,4.564c0.062,0.378-0.099,0.758-0.411,0.979C36.728,29.938,36.525,30,36.323,30c-0.166,0-0.333-0.041-0.484-0.125
		l-3.841-2.124l-3.841,2.124c-0.336,0.186-0.748,0.163-1.061-0.058s-0.473-0.601-0.411-0.979l0.745-4.564l-3.146-3.227
		c-0.262-0.269-0.352-0.66-0.232-1.016s0.427-0.614,0.797-0.671l4.309-0.658l1.936-4.123c0.165-0.352,0.518-0.575,0.905-0.575
		s0.74,0.224,0.905,0.575l1.936,4.123l4.309,0.658c0.37,0.057,0.678,0.315,0.797,0.671S39.974,20.779,39.712,21.048z"/>
	<path fill="#231F20" d="M32,0C19.869,0,10,9.869,10,22s9.869,22,22,22s22-9.869,22-22S44.131,0,32,0z M32,40
		c-9.925,0-18-8.075-18-18S22.075,4,32,4s18,8.075,18,18S41.925,40,32,40z"/>
	<path fill="#231F20" d="M33.255,20.036l-1.257-2.678l-1.257,2.678c-0.142,0.303-0.425,0.514-0.754,0.563l-2.913,0.445l2.141,2.194
		c0.222,0.228,0.322,0.546,0.271,0.859l-0.495,3.029l2.522-1.395c0.151-0.083,0.317-0.125,0.484-0.125s0.333,0.042,0.484,0.125
		l2.522,1.395l-0.495-3.029c-0.051-0.313,0.05-0.632,0.271-0.859l2.141-2.194L34.009,20.6C33.68,20.55,33.396,20.339,33.255,20.036z
		"/>
	<path fill="#231F20" d="M42,63l0.8,0.6c0.354,0.265,0.775,0.4,1.2,0.4c0.305,0,0.611-0.069,0.895-0.211
		C45.572,63.45,46,62.758,46,62V41.488c-1.249,0.898-2.587,1.68-4,2.328V63z"/>
	<path fill="#231F20" d="M24,44.629V61.5l8-6l8,6V44.629C37.497,45.514,34.806,46,32,46S26.503,45.514,24,44.629z"/>
	<path fill="#231F20" d="M18,62c0,0.758,0.428,1.45,1.105,1.789C19.388,63.931,19.694,64,19.998,64c0.426,0,0.848-0.136,1.202-0.4
		L22,63V43.816c-1.413-0.648-2.751-1.43-4-2.328V62z"/>
</g>
</svg>