<svg xmlns="http://www.w3.org/2000/svg" shape-rendering="geometricPrecision" text-rendering="geometricPrecision" image-rendering="optimizeQuality" fill-rule="evenodd" clip-rule="evenodd" viewBox="0 0 335 512.4"><path fill="#FF2121" d="M167.359 0C204.195 157.43 335 228.092 335 346.434c0 45.526-16.433 84.553-49.33 117.088-33.021 32.534-72.379 48.878-118.23 48.878-45.731 0-85.008-16.344-118.029-48.878C16.472 430.991 0 391.964 0 346.434 0 227.529 130.921 158.063 167.359 0z"/><path fill="#FF8787" fill-rule="nonzero" d="M52.721 321.911c-1.319-8.32 4.355-16.139 12.676-17.459 8.321-1.319 16.14 4.355 17.459 12.676 4.351 27.115 13.555 50.472 26.139 68.9 12.548 18.381 28.434 31.74 46.089 38.822 7.827 3.136 11.627 12.028 8.491 19.854-3.136 7.828-12.028 11.627-19.855 8.491-23.311-9.351-43.979-26.54-59.961-49.947-15.006-21.977-25.942-49.566-31.038-81.337z"/></svg>